# xmcd
#
# Track frame offsets: 
#        150
#        12072
#        23531
#        36207
#        50541
#        64120
#        77372
#        90764
#        103766
#        119269
#        140215
#        149420
#        161865
#        175317
#        186414
#        204792
#        217842
#        231420
#        246030
#        254424
#        265791
#        281187
#        294378
#        308399
#        317942
#        332144
#
# Disc length: 4584 seconds
#
# Revision: 0
# Processed by: cddbd v1.5.2PL0 Copyright (c) Steve Scherf et al.
# Submitted via: ExactAudioCopy v1.0b1
#
DISCID=7311e61a
DTITLE=Various Artist - I Get My Groove
DYEAR=2010
DGENRE=Soul
TTITLE0=Syl Johnson - We Did it
TTITLE1=Gloria Edwards - Don't Mess With My Mam
TTITLE2=Fontella Bass - Now That I've Found a Good Thing
TTITLE3=Bobby McClure - Was it Something I Said
TTITLE4=Eddie McGee - What Made You Change?
TTITLE5=Imported Moods - What Have You Done With My Heart
TTITLE6=The Montclairs - I Need You More Than Ever
TTITLE7=Oscar Perry - Let Me Grow Old With You
TTITLE8=Al Green - I Tried to Tell Myself
TTITLE9=Ronnie Lovejoy - You Got to Know
TTITLE10=The Patterson Twins - Looking for a Lover
TTITLE11=Little Johnnie Taylor - How are You Fixed for Love
TTITLE12=Bobby Patterson - Everything Good to You (Don't Have to Be Go
TTITLE12=od for You)
TTITLE13=Jean Plum - Here I Go Again
TTITLE14=Ann Peebles - I Didn't Take Your Man
TTITLE15=Henry Shed - Something's Drastically Wrong
TTITLE16=Bobo Mr. Soul - Hitch-hike to Heartbreak Road
TTITLE17=Pat Brown - Love on Loan
TTITLE18=Barbara Lynn - Nica and Easy
TTITLE19=Otis Clay - Brand New Thing
TTITLE20=Bobby Patterson - I Get My Groove from You
TTITLE21=Ted Taylor - I Want to Be a Part of You Girl
TTITLE22=Phillip Mitchell - Little Things
TTITLE23=James Fry - Still Around
TTITLE24=Ann Peebles - If This Is Heaven
TTITLE25=Jean Plum - Look at This Boy
EXTD=
EXTT0=
EXTT1=
EXTT2=
EXTT3=
EXTT4=
EXTT5=
EXTT6=
EXTT7=
EXTT8=
EXTT9=
EXTT10=
EXTT11=
EXTT12=
EXTT13=
EXTT14=
EXTT15=
EXTT16=
EXTT17=
EXTT18=
EXTT19=
EXTT20=
EXTT21=
EXTT22=
EXTT23=
EXTT24=
EXTT25=
PLAYORDER=
